# xmcd
#
# Track frame offsets:
#	150
#	19131
#	42375
#	61636
#	78687
#	94569
#	110629
#	126632
#	153511
#	172243
#	194790
#	213785
#
# Disc length: 3083 seconds
#
# Revision: 0
# Processed by: cddbd v1.4PL0 Copyright (c) Steve Scherf et al.
# Submitted via: dBpowerAMP V4.0
#
DISCID=ad0c090c
DTITLE=Jonny Lang - Lie To Me
DYEAR=1900
DGENRE=Blues
TTITLE0=Lie To Me
TTITLE1=Darker Side
TTITLE2=Good Morning Little School Girl
TTITLE3=Still Wonder
TTITLE4=Matchbox
TTITLE5=Back For A Taste Of Your Love
TTITLE6=A Quitter Never Wins
TTITLE7=Hit The Ground Running
TTITLE8=Rack 'Em Up
TTITLE9=When I Come To You
TTITLE10=There's Gotta Be A Change
TTITLE11=Missing Your Love
EXTD=
EXTT0=
EXTT1=
EXTT2=
EXTT3=
EXTT4=
EXTT5=
EXTT6=
EXTT7=
EXTT8=
EXTT9=
EXTT10=
EXTT11=
PLAYORDER=
